<?xml version="1.0" encoding="UTF-8"?><svg xmlns="http://www.w3.org/2000/svg" viewBox="0 0 391.67 101.67"><defs><style>.d{fill:#fff;}</style></defs><g id="a"/><g id="b"><g id="c"><g><g><path class="d" d="M45.03,83.94v16.83h-14.4V55.32h14.4v5.49l-2.7,8.1h3.6c1.8-8.1,7.47-14.49,17.19-14.49,11.61,0,18.63,7.74,18.63,21.78v24.57h-14.4v-22.32c0-8.28-2.43-11.43-9.36-11.43-7.83,0-12.96,4.14-12.96,16.92Z"/><path class="d" d="M113.07,101.67c-16.74,0-23.94-6.75-23.94-17.37h14.4c0,3.51,2.43,6.57,9.99,6.57,3.87,0,6.3-.9,6.3-3.06,0-2.34-2.52-2.97-9.81-5.4-8.46-2.79-18.81-5.04-18.81-15.21,0-8.1,7.29-12.78,19.8-12.78,15.39,0,21.69,7.65,21.69,16.47h-14.4c0-3.24-2.43-5.67-7.38-5.67-3.42,0-5.31,.81-5.31,2.61,0,2.16,4.5,3.51,11.7,5.85,8.82,2.88,16.92,5.13,16.92,14.58,0,7.65-5.49,13.41-21.15,13.41Z"/><path class="d" d="M177.87,72.15v-16.83h14.4v45.45h-14.4v-5.49l2.7-8.1h-3.6c-1.8,8.1-7.47,14.49-17.19,14.49-11.61,0-18.63-7.74-18.63-21.78v-24.57h14.4v22.32c0,8.28,2.43,11.43,9.36,11.43,7.83,0,12.96-4.14,12.96-16.92Z"/><path class="d" d="M224.16,55.14c8.64,0,19.71,4.86,20.88,17.82h-7.47c-1.26-8.55-6.93-11.52-13.41-11.52-10.62,0-15.48,7.74-15.48,16.92s4.86,17.01,15.48,17.01c6.48,0,12.15-2.97,13.41-11.52h7.47c-1.17,12.96-12.24,17.82-20.88,17.82-14.49,0-22.86-10.35-22.86-23.31s8.37-23.22,22.86-23.22Z"/><path class="d" d="M277.11,55.14c14.22,0,23.49,10.26,23.49,23.22s-9.27,23.31-23.49,23.31-23.67-10.26-23.67-23.31,9.36-23.22,23.67-23.22Zm0,40.23c10.53,0,16.2-7.65,16.2-17.01s-5.67-16.92-16.2-16.92-16.29,7.65-16.29,16.92,5.67,17.01,16.29,17.01Z"/><path class="d" d="M311.51,61.35c0-4.23,1.98-6.3,6.21-6.12l24.84,.81v6.3l-23.67-.81v39.24h-7.38V61.35Z"/><path class="d" d="M369.27,55.14c12.6,0,20.88,8.01,20.88,21.78v2.88h-35.37c.45,8.46,4.5,15.75,15.57,15.75,7.38,0,12.33-3.6,13.95-10.44h7.38c-1.71,6.93-7.11,16.56-21.33,16.56-16.02,0-22.77-10.98-22.77-23.85,0-14.4,9-22.68,21.69-22.68Zm13.68,19.08c0-7.2-4.77-12.87-13.68-12.87s-14.49,5.67-14.49,12.87h28.17Z"/></g><g><path class="d" d="M9.69,50.82c5.31,0,8.64-2.52,8.64-7.2s-3.33-7.2-8.64-7.2-8.46,2.61-8.46,7.2,3.15,7.2,8.46,7.2Z"/><path class="d" d="M18.98,88.73V55.32H0v12.04H4.58v24.59c0,4.87,3.95,8.82,8.82,8.82h10.16v-12.04h-4.58Z"/></g></g><g><path class="d" d="M186.82,8.55c-6.48,0-10.56,4.81-10.56,10.43s4.08,10.56,10.56,10.56,10.43-4.88,10.43-10.56-4.01-10.43-10.43-10.43Zm0,18.65c-5.15,0-7.82-3.81-7.82-8.22s2.67-8.15,7.82-8.15,7.75,3.81,7.75,8.15-2.67,8.22-7.75,8.22Z"/><path class="d" d="M32.11,8.15c-3.94,0-5.81,2.47-6.62,6.15h-1.2c-.6-3.61-2.21-6.15-6.08-6.15s-5.88,2.47-6.68,6.15h-1.6l1.2-3.68v-2.07H4.58V29.07h6.55v-7.15c0-5.01,.8-8.09,4.34-8.09,2.41,0,3.07,1.07,3.07,5.01v10.22h6.48v-7.15c0-5.01,.87-8.09,4.41-8.09,2.34,0,3.01,1.07,3.01,5.01v10.22h6.55v-10.69c0-5.55-1.6-10.22-6.88-10.22Z"/><path class="d" d="M53.9,11.56c0-2.27-1.2-3.54-3.54-3.41l-7.69,.4v5.68l5.01-.27v9.42h-5.88v5.68h17.98v-5.68h-5.88V11.56Z"/><path class="d" d="M50.29,6.48c2.41,0,3.88-1.14,3.88-3.27s-1.47-3.21-3.88-3.21-3.88,1.14-3.88,3.21,1.47,3.27,3.88,3.27Z"/><path class="d" d="M72.61,13.83c2.61,0,4.28,1.4,4.54,3.21h6.48c-.27-5.88-5.41-8.89-11.03-8.89-6.55,0-11.23,3.81-11.23,10.63s4.68,10.76,11.23,10.76c5.61,0,10.76-3.07,11.03-8.95h-6.48c-.27,1.8-1.94,3.21-4.54,3.21-3.07,0-4.68-1.8-4.68-5.01s1.6-4.95,4.68-4.95Z"/><path class="d" d="M86.91,11.63V29.07h6.55V13.97l10.43,.27v-5.68l-13.43-.33c-2.27-.07-3.54,1.14-3.54,3.41Z"/><path class="d" d="M117.52,8.15c-6.42,0-11.56,3.48-11.56,10.63s5.15,10.76,11.56,10.76,11.63-3.54,11.63-10.76-5.15-10.63-11.63-10.63Zm0,15.64c-3.07,0-5.08-1.54-5.08-5.01s2-4.95,5.08-4.95,5.08,1.54,5.08,4.95-2,5.01-5.08,5.01Z"/><path class="d" d="M145.52,8.55c-4.48,0-7.35,2.47-8.15,5.75h-.8l.4-2.07v-3.27h-2.74v27.47h2.74v-10.63l-.4-2h.8c.8,3.21,3.68,5.75,8.15,5.75,5.88,0,9.82-4.48,9.82-10.49s-3.94-10.49-9.82-10.49Zm-.53,18.65c-4.28,0-8.02-2.41-8.02-8.15s3.74-8.22,8.02-8.22,7.69,2.54,7.69,8.22-3.34,8.15-7.69,8.15Z"/><path class="d" d="M160.76,11.16V29.07h2.67V10.83l10.76,.4v-2.27l-10.83-.4c-1.8-.13-2.61,.8-2.61,2.61Z"/><path class="d" d="M206.8,11.23h6.28v-2.27h-6.28V2.61l-2.67,.8v5.55h-4.34v2.27h4.34v15.64c0,1.8,.8,2.74,2.67,2.67l7.08-.47v-2.27l-7.08,.47V11.23Z"/><path class="d" d="M227.25,27.2c-5.28,0-7.08-3.61-7.35-7.69h16.04v-1.14c0-6.28-3.54-9.82-9.16-9.82s-9.56,3.68-9.56,10.22c0,5.81,2.94,10.76,10.02,10.76,6.28,0,8.55-4.28,9.42-7.48h-2.74c-.8,3.41-3.14,5.15-6.68,5.15Zm-.47-16.37c4.14,0,6.48,2.81,6.48,6.35h-13.37c0-3.54,2.87-6.35,6.88-6.35Z"/><path class="d" d="M251.38,10.83c3.01,0,5.75,1.34,6.35,5.61h2.74c-.53-5.88-5.55-7.89-9.09-7.89-6.55,0-10.16,4.81-10.16,10.43s3.61,10.56,10.16,10.56c3.54,0,8.55-2.07,9.09-7.95h-2.74c-.6,4.28-3.34,5.61-6.35,5.61-5.15,0-7.48-3.81-7.48-8.22s2.34-8.15,7.48-8.15Z"/><path class="d" d="M270.02,27.27V11.23h6.28v-2.27h-6.28V2.61l-2.67,.8v5.55h-4.34v2.27h4.34v15.64c0,1.8,.8,2.74,2.67,2.67l7.08-.47v-2.27l-7.08,.47Z"/></g></g></g></svg>